<svg width="100%" height="100%" viewBox="0 0 12.7 12.7" version="1.1" xmlns="http://www.w3.org/2000/svg">
  <path
     fill="currentColor"
     style="fill-rule:evenodd;stroke:none"
     transform="matrix(0.08032723,0,0,-0.08032723,5.3366109,6.1069463)"
     d="m 0,0 c 0.685,3.532 1.336,6.941 2.029,10.341 0.043,0.212 0.423,0.516 0.636,0.508 C 4.456,10.78 6.272,10.806 8.024,10.491 9.756,10.18 10.714,8.917 10.982,7.137 11.549,3.373 9.1,0.392 4.976,0.023 3.394,-0.118 1.789,0 0,0 M 12.61576,76.025851 A 79.051645,79.051645 0 0 1 -66.435886,-3.0257944 79.051645,79.051645 0 0 1 12.61576,-82.077437 79.051645,79.051645 0 0 1 91.667403,-3.0257944 79.051645,79.051645 0 0 1 12.61576,76.025851 Z M -30.384012,23.459852 h 2.714827 c -3.215997,-16.3449835 -6.415698,-32.6146356 -9.617694,-48.892619 h -2.72126 c 3.210997,16.3189828 6.411129,32.5696358 9.624127,48.892619 z m 11.290334,-0.0064 h 2.412465 C -19.892209,7.1304687 -23.091909,-9.1253171 -26.298905,-25.4263 h -2.412465 z m -5.474687,-0.01287 h 2.367433 c -3.209997,-16.3139839 -6.410697,-32.5763354 -9.617693,-48.873319 h -2.360999 c 3.203997,16.2879831 6.394263,32.5153356 9.611259,48.873319 z m 10.987974,0 H 61.765707 C 58.552706,7.1165684 55.354012,-9.1353508 52.148015,-25.426334 h -75.339666 c 3.211996,16.3239838 6.405263,32.575903 9.61126,48.866886 z m 7.9450496,-5.02436 C -8.2113385,5.5552048 -10.726732,-6.9974313 -13.258729,-19.636418 h 9.2123978 c 0.087001,0.273999 0.1968968,0.533154 0.2508973,0.804155 0.6569988,3.287995 1.3755391,6.562592 1.9235377,9.8685884 0.2139998,1.2939982 0.7218731,1.5726091 1.98787192,1.6276101 3.05999688,0.1309993 6.19506878,0.1699206 9.14806638,0.8749196 8.8879899,2.1219978 11.7852089,9.3580326 10.7242099,16.5720249 -0.579,3.930996 -3.709382,7.055324 -8.395378,7.533324 -5.7029939,0.580999 -11.46922078,0.539988 -17.2282154,0.771988 z M 24.607318,18.120263 c -0.494,-2.541998 -0.975513,-5.032724 -1.492512,-7.687721 h 9.57266 C 30.689468,0.33255222 28.725717,-9.599728 26.73672,-19.655718 h 9.257431 c 0.114,0.527999 0.229095,1.023678 0.328096,1.524677 1.820998,9.1619908 3.659656,18.32367433 5.429654,27.4956649 0.184999,0.9580001 0.591179,1.1205171 1.428178,1.1065181 2.477999,-0.04 4.958828,-0.03457 7.436825,0.0064 0.353999,0.006 0.965452,0.246059 1.016452,0.476059 0.523,2.361999 0.950314,4.745631 1.415313,7.166629 z" />
</svg>
